
        <svg xmlns="http://www.w3.org/2000/svg" xmlns:xlink="http://www.w3.org/1999/xlink" version="1.1" width="3160.142285281065" height="1013.8996546177002" viewBox="0 -18.336291664681973 3160.142285281065 1013.8996546177002">
			
			<g transform="scale(8.007114264053262) translate(10, 10)">
				<defs id="SvgjsDefs2060"/><g id="SvgjsG2061" featureKey="nYIUkx-0" transform="matrix(14.08346707986461,0,0,14.08346707986461,2.545664885462287,-9.744282607976858)" fill="#fff"><g xmlns="http://www.w3.org/2000/svg" transform="translate(0,-288.53332)"><path style="color:;font-style:normal;font-variant:normal;font-weight:normal;font-stretch:normal;font-size:medium;line-height:normal;font-family:sans-serif;text-indent:0;text-align:start;text-decoration:none;text-decoration-line:none;text-decoration-style:solid;text-decoration-color:;letter-spacing:normal;word-spacing:normal;text-transform:none;direction:ltr;block-progression:tb;writing-mode:lr-tb;baseline-shift:baseline;text-anchor:start;white-space:normal;clip-rule:nonzero;display:inline;overflow:visible;visibility:visible;opacity:1;isolation:auto;mix-blend-mode:normal;color-interpolation:sRGB;color-interpolation-filters:linearRGB;solid-color:;solid-opacity:1;fill:#222831;fill-opacity:1;fill-rule:nonzero;stroke:none;stroke-width:0.26458335;stroke-linecap:round;stroke-linejoin:round;stroke-miterlimit:4;stroke-dasharray:none;stroke-dashoffset:0;stroke-opacity:1;color-rendering:auto;image-rendering:auto;shape-rendering:auto;text-rendering:auto;enable-background:accumulate" d="m 4.2324219,289.0625 c -2.0441858,0 -3.70312193,1.66089 -3.70312502,3.70508 -2.64e-6,2.04419 1.65893522,3.70312 3.70312502,3.70312 2.0441897,0 3.7050807,-1.65893 3.7050781,-3.70312 -3.1e-6,-2.04419 -1.6608924,-3.70508 -3.7050781,-3.70508 z m 0,0.26367 c 1.9011943,0 3.4414034,1.54021 3.4414062,3.44141 2.5e-6,1.9012 -1.5402081,3.43945 -3.4414062,3.43945 -1.9011982,0 -3.4394556,-1.53825 -3.43945315,-3.43945 2.87e-6,-1.9012 1.53825875,-3.44141 3.43945315,-3.44141 z"/><path style="color:;font-style:normal;font-variant:normal;font-weight:normal;font-stretch:normal;font-size:medium;line-height:normal;font-family:sans-serif;text-indent:0;text-align:start;text-decoration:none;text-decoration-line:none;text-decoration-style:solid;text-decoration-color:;letter-spacing:normal;word-spacing:normal;text-transform:none;direction:ltr;block-progression:tb;writing-mode:lr-tb;baseline-shift:baseline;text-anchor:start;white-space:normal;clip-rule:nonzero;display:inline;overflow:visible;visibility:visible;opacity:1;isolation:auto;mix-blend-mode:normal;color-interpolation:sRGB;color-interpolation-filters:linearRGB;solid-color:;solid-opacity:1;fill:#222831;fill-opacity:1;fill-rule:nonzero;stroke:none;stroke-width:0.26458335;stroke-linecap:round;stroke-linejoin:round;stroke-miterlimit:4;stroke-dasharray:none;stroke-dashoffset:0;stroke-opacity:1;color-rendering:auto;image-rendering:auto;shape-rendering:auto;text-rendering:auto;enable-background:accumulate" d="m 4.2324219,291.31055 c -0.8021196,0 -1.455074,0.65491 -1.4550781,1.45703 -2e-6,0.80212 0.6529543,1.45508 1.4550781,1.45508 0.8021238,0 1.4570332,-0.65296 1.4570312,-1.45508 -4.1e-6,-0.80212 -0.6549117,-1.45703 -1.4570312,-1.45703 z m 0,0.26562 c 0.6591285,0 1.1914028,0.53228 1.1914062,1.19141 1.6e-6,0.65913 -0.5322741,1.18945 -1.1914062,1.18945 -0.6591321,0 -1.1894547,-0.53032 -1.1894531,-1.18945 3.3e-6,-0.65913 0.5303245,-1.19141 1.1894531,-1.19141 z"/><path style="color:;font-style:normal;font-variant:normal;font-weight:normal;font-stretch:normal;font-size:medium;line-height:normal;font-family:sans-serif;text-indent:0;text-align:start;text-decoration:none;text-decoration-line:none;text-decoration-style:solid;text-decoration-color:;letter-spacing:normal;word-spacing:normal;text-transform:none;direction:ltr;block-progression:tb;writing-mode:lr-tb;baseline-shift:baseline;text-anchor:start;white-space:normal;clip-rule:nonzero;display:inline;overflow:visible;visibility:visible;opacity:1;isolation:auto;mix-blend-mode:normal;color-interpolation:sRGB;color-interpolation-filters:linearRGB;solid-color:;solid-opacity:1;fill:#222831;fill-opacity:1;fill-rule:nonzero;stroke:none;stroke-width:0.26458335;stroke-linecap:round;stroke-linejoin:round;stroke-miterlimit:4;stroke-dasharray:none;stroke-dashoffset:0;stroke-opacity:1;color-rendering:auto;image-rendering:auto;shape-rendering:auto;text-rendering:auto;enable-background:accumulate" d="m 4.2324219,291.97266 c -0.4368053,0 -0.7929632,0.35811 -0.7929688,0.79492 -1e-6,0.43681 0.3561589,0.79297 0.7929688,0.79297 0.4368098,0 0.7949229,-0.35616 0.7949219,-0.79297 -5.6e-6,-0.43681 -0.3581167,-0.79492 -0.7949219,-0.79492 z m 0,0.26562 c 0.2938149,0 0.5292931,0.23548 0.5292969,0.5293 7e-7,0.29382 -0.2354788,0.52734 -0.5292969,0.52734 -0.2938182,0 -0.5273445,-0.23352 -0.5273438,-0.52734 3.8e-6,-0.29382 0.2335288,-0.5293 0.5273438,-0.5293 z"/><path style="color:;font-style:normal;font-variant:normal;font-weight:normal;font-stretch:normal;font-size:medium;line-height:normal;font-family:sans-serif;text-indent:0;text-align:start;text-decoration:none;text-decoration-line:none;text-decoration-style:solid;text-decoration-color:;letter-spacing:normal;word-spacing:normal;text-transform:none;direction:ltr;block-progression:tb;writing-mode:lr-tb;baseline-shift:baseline;text-anchor:start;white-space:normal;clip-rule:nonzero;display:inline;overflow:visible;visibility:visible;opacity:1;isolation:auto;mix-blend-mode:normal;color-interpolation:sRGB;color-interpolation-filters:linearRGB;solid-color:;solid-opacity:1;fill:#222831;fill-opacity:1;fill-rule:evenodd;stroke:none;stroke-width:0.26458335px;stroke-linecap:round;stroke-linejoin:round;stroke-miterlimit:4;stroke-dasharray:none;stroke-dashoffset:0;stroke-opacity:1;color-rendering:auto;image-rendering:auto;shape-rendering:auto;text-rendering:auto;enable-background:accumulate" d="m 7.7304688,293.16211 a 0.1323049,0.1323049 0 0 0 -0.080078,0.0352 l -2.0117187,1.81835 -1.0742188,0 a 0.1323049,0.1323049 0 1 0 0,0.26368 l 1.125,0 a 0.1323049,0.1323049 0 0 0 0.087891,-0.0332 l 2.0507812,-1.85156 a 0.1323049,0.1323049 0 0 0 -0.097656,-0.23242 z"/><path style="color:;font-style:normal;font-variant:normal;font-weight:normal;font-stretch:normal;font-size:medium;line-height:normal;font-family:sans-serif;text-indent:0;text-align:start;text-decoration:none;text-decoration-line:none;text-decoration-style:solid;text-decoration-color:;letter-spacing:normal;word-spacing:normal;text-transform:none;direction:ltr;block-progression:tb;writing-mode:lr-tb;baseline-shift:baseline;text-anchor:start;white-space:normal;clip-rule:nonzero;display:inline;overflow:visible;visibility:visible;opacity:1;isolation:auto;mix-blend-mode:normal;color-interpolation:sRGB;color-interpolation-filters:linearRGB;solid-color:;solid-opacity:1;fill:#222831;fill-opacity:1;fill-rule:nonzero;stroke:none;stroke-width:0.26458335;stroke-linecap:round;stroke-linejoin:round;stroke-miterlimit:4;stroke-dasharray:none;stroke-dashoffset:0;stroke-opacity:1;color-rendering:auto;image-rendering:auto;shape-rendering:auto;text-rendering:auto;enable-background:accumulate" d="m 4.2324219,294.61914 c -0.217578,0 -0.3964844,0.1789 -0.3964844,0.39648 l 0,0.26368 c 0,0.21758 0.1789004,0.39843 0.3964844,0.39843 0.2175839,0 0.3984375,-0.18085 0.3984375,-0.39843 l 0,-0.26368 c 0,-0.21758 -0.1808596,-0.39648 -0.3984375,-0.39648 z m 0,0.26367 c 0.07558,0 0.1328125,0.0572 0.1328125,0.13281 l 0,0.26368 c 0,0.0756 -0.057238,0.13281 -0.1328125,0.13281 -0.075574,0 -0.1308594,-0.0572 -0.1308594,-0.13281 l 0,-0.26368 c 0,-0.0756 0.055279,-0.13281 0.1308594,-0.13281 z"/><path style="color:;font-style:normal;font-variant:normal;font-weight:normal;font-stretch:normal;font-size:medium;line-height:normal;font-family:sans-serif;text-indent:0;text-align:start;text-decoration:none;text-decoration-line:none;text-decoration-style:solid;text-decoration-color:;letter-spacing:normal;word-spacing:normal;text-transform:none;direction:ltr;block-progression:tb;writing-mode:lr-tb;baseline-shift:baseline;text-anchor:start;white-space:normal;clip-rule:nonzero;display:inline;overflow:visible;visibility:visible;opacity:1;isolation:auto;mix-blend-mode:normal;color-interpolation:sRGB;color-interpolation-filters:linearRGB;solid-color:;solid-opacity:1;fill:#222831;fill-opacity:1;fill-rule:evenodd;stroke:none;stroke-width:0.26458332px;stroke-linecap:round;stroke-linejoin:round;stroke-miterlimit:4;stroke-dasharray:none;stroke-dashoffset:0;stroke-opacity:1;color-rendering:auto;image-rendering:auto;shape-rendering:auto;text-rendering:auto;enable-background:accumulate" d="m 3.6933594,295.01562 a 0.13230489,0.13230489 0 0 0 0.013672,0.26368 l 0.1269532,0 a 0.13230489,0.13230489 0 1 0 0,-0.26368 l -0.1269532,0 a 0.13230489,0.13230489 0 0 0 -0.013672,0 z"/></g></g><g id="SvgjsG2062" featureKey="PXhRQw-0" transform="matrix(2.9211274628466013,0,0,2.9211274628466013,127.24732380087246,10.933804525952166)" fill="#fff"><path d="M3.48 8.04 l0 9.42 l1.36 0 c0.12 0 0.19666 -0.02334 0.23 -0.07 s0.05 -0.12332 0.05 -0.22998 l0 -8.84 c0 -0.18666 -0.08666 -0.28 -0.26 -0.28 l-1.38 0 z M8 17.759999999999998 c0 0.8 -0.16666 1.3733 -0.5 1.72 s-0.92 0.52 -1.76 0.52 l-5.14 0 l0 -14.5 l5.68 0 c0.57334 0 1.0033 0.16 1.29 0.48 s0.43 0.74666 0.43 1.28 l0 10.5 z M9.2 5.5 l5.64 0 l0.5 2.7 l-3.16 0 l0 3.44 l2.4 0 l0 2.5 l-2.4 0 l0 3.16 l3.04 0 l-0.5 2.7 l-5.52 0 l0 -14.5 z M19.16 13.16 l0 6.84 l-2.82 0 l0 -14.5 l3.06 0 l1.58 6.12 l1.58 -6.12 l3.08 0 l0 14.5 l-2.82 0 l0 -6.84 l-1.84 5.8 z M30.020000000000003 8.04 c-0.17334 0 -0.26 0.09334 -0.26 0.28 l0 8.84 c0 0.10666 0.01666 0.18332 0.05 0.22998 s0.11 0.07 0.23 0.07 l1.1 0 c0.12 0 0.19666 -0.02334 0.23 -0.07 s0.05 -0.12332 0.05 -0.22998 l0 -8.84 c0 -0.18666 -0.08666 -0.28 -0.26 -0.28 l-1.14 0 z M34.36 17.94 c0 0.28 -0.03334 0.54334 -0.1 0.79 s-0.18 0.46332 -0.34 0.64998 s-0.37334 0.33666 -0.64 0.45 s-0.6 0.17 -1 0.17 l-3.36 0 c-0.4 0 -0.73334 -0.05666 -1 -0.17 s-0.48 -0.26334 -0.64 -0.45 s-0.27334 -0.40332 -0.34 -0.64998 s-0.1 -0.51 -0.1 -0.79 l0 -10.56 c0 -0.57334 0.15666 -1.03 0.47 -1.37 s0.81 -0.51 1.49 -0.51 l3.6 0 c0.68 0 1.1767 0.17 1.49 0.51 s0.47 0.79666 0.47 1.37 l0 10.56 z M40.94 8.04 l0 5.7 l1.44 0 c0.12 0 0.19666 -0.02334 0.23 -0.07 s0.05 -0.12332 0.05 -0.22998 l0 -5.12 c0 -0.18666 -0.08666 -0.28 -0.26 -0.28 l-1.46 0 z M43.76 5.5 c0.57334 0 1.0033 0.15998 1.29 0.47998 s0.43 0.74666 0.43 1.28 l0 6.94 c0 0.28 -0.03 0.53666 -0.09 0.77 s-0.17 0.43668 -0.33 0.61002 s-0.37334 0.31 -0.64 0.41 s-0.6 0.15 -1 0.15 l-2.48 0 l0 3.86 l-2.88 0 l0 -14.5 l5.7 0 z M46.620000000000005 5.5 l2.98 0 l0 11.8 l2.92 0 l-0.5 2.7 l-5.4 0 l0 -14.5 z M56.300000000000004 18.2 l-0.26 1.8 l-2.92 0 l2.62 -14.5 l3.1 0 l2.62 14.5 l-2.92 0 l-0.26 -1.8 l-1.98 0 z M56.620000000000005 15.9 l1.34 0 l-0.66 -5.14 z M66.30000000000001 20 l-3.06 0 l0 -3.68 l-2.78 -10.82 l3 0 l1.3 6.84 l1.32 -6.84 l3 0 l-2.78 10.82 l0 3.68 z M69.88 5.5 l5.64 0 l0.5 2.7 l-3.16 0 l0 3.44 l2.4 0 l0 2.5 l-2.4 0 l0 3.16 l3.04 0 l-0.5 2.7 l-5.52 0 l0 -14.5 z M79.92 8.04 l0 5 l1.42 0 c0.18666 0 0.28 -0.1 0.28 -0.3 l0 -4.4 c0 -0.2 -0.09334 -0.3 -0.28 -0.3 l-1.42 0 z M84.48 14.1 c0 0.32 -0.11 0.61334 -0.33 0.88 s-0.54334 0.4 -0.97 0.4 l1.52 4.62 l-3 0 l-1.4 -4.62 l-0.38 0 l0 4.62 l-2.9 0 l0 -14.5 l5.5 0 c0.68 0 1.1767 0.17 1.49 0.51 s0.47 0.79666 0.47 1.37 l0 6.72 z"/></g><g id="SvgjsG2063" featureKey="mlRtrp-0" transform="matrix(0.6348391317520501,0,0,0.6348391317520501,131.66727470144633,75.03863847266753)" fill="#fff"><path d="M17.402 16.2988 c0 0.52083 -0.068369 0.97333 -0.20509 1.3574 s-0.32715 0.71451 -0.57129 0.99121 s-0.53711 0.5013 -0.87891 0.67383 s-0.7194 0.30925 -1.1328 0.41016 s-0.85449 0.1709 -1.3232 0.20996 s-0.95378 0.058594 -1.4551 0.058594 l-9.7363 0 l0 -13.418 l9.5605 0 c0.38411 0 0.76985 0.016279 1.1572 0.048828 s0.75684 0.092773 1.1084 0.18066 s0.67871 0.20996 0.98145 0.36621 s0.56641 0.36133 0.79102 0.61523 s0.40039 0.55989 0.52734 0.91797 s0.19043 0.78125 0.19043 1.2695 c0 0.87239 -0.21484 1.5642 -0.64453 2.0752 s-1.1067 0.85123 -2.0313 1.0205 c0.65104 0.045576 1.2093 0.14486 1.6748 0.29786 s0.84473 0.36133 1.1377 0.625 s0.50781 0.58594 0.64453 0.9668 s0.20508 0.8252 0.20508 1.333 z M12.881 10.5566 c0 -0.16927 -0.026045 -0.3304 -0.078125 -0.4834 s-0.14648 -0.28809 -0.2832 -0.40527 s-0.32227 -0.21159 -0.55664 -0.2832 s-0.53386 -0.10742 -0.89844 -0.10742 l-5.3418 0 l0 2.5195 l5.3418 0 c0.36458 0 0.66406 -0.032549 0.89844 -0.097656 s0.41992 -0.153 0.55664 -0.26367 s0.23112 -0.24251 0.2832 -0.39551 s0.078125 -0.31413 0.078125 -0.4834 z M13.721 15.8789 c0 -0.30599 -0.05208 -0.55177 -0.15625 -0.73731 s-0.26693 -0.32878 -0.48829 -0.42969 s-0.50781 -0.16764 -0.85938 -0.20019 s-0.77148 -0.048828 -1.2598 -0.048828 l-5.2344 0 l0 2.8418 l5.2344 0 c0.48828 0 0.9082 -0.016279 1.2598 -0.048828 s0.63802 -0.10091 0.85938 -0.20508 s0.38412 -0.24902 0.48829 -0.43457 s0.15625 -0.43132 0.15625 -0.7373 z M45.87346875 14.5215 l0 5.4785 l-3.6133 0 l0 -5.4785 l-6.5039 -7.9395 l4.0625 0 l4.2578 5.4004 l4.2383 -5.4004 l4.0625 0 z M95.90038125 20 l0 -13.418 l3.623 0 l0 13.418 l-3.623 0 z M137.535 20 l0 -9.4238 l-4.9805 9.4238 l-3.4766 0 l-4.9805 -9.4238 l0 9.4238 l-3.623 0 l0 -13.418 l4.9219 0 l5.4199 10.156 l5.4199 -10.156 l4.9023 0 l0 13.418 l-3.6035 0 z M172.871234375 17.4609 l-7.4805 0 l-1.2598 2.5391 l-4.043 0 l7.0215 -13.418 l4.043 0 l7.0215 13.418 l-4.043 0 z M166.689434375 14.8437 l4.9023 0 l-2.4414 -4.9414 z M205.7654375 6.24 c1.3151 0 2.5375 0.11229 3.667 0.33689 s2.1663 0.5127 3.1104 0.86426 l0 3.2813 c-0.37109 -0.20833 -0.78938 -0.41016 -1.2549 -0.60547 s-0.97168 -0.36784 -1.5186 -0.51758 s-1.1328 -0.27018 -1.7578 -0.36132 s-1.2825 -0.13672 -1.9727 -0.13672 c-0.85938 0 -1.6081 0.061846 -2.2461 0.18555 s-1.1849 0.28972 -1.6406 0.49805 s-0.83008 0.45084 -1.123 0.72753 s-0.52409 0.57129 -0.69336 0.88379 s-0.28646 0.63151 -0.35156 0.95703 s-0.097656 0.64127 -0.097656 0.94726 c0 0.26692 0.027666 0.55664 0.083008 0.86914 s0.15951 0.625 0.31251 0.9375 s0.36621 0.61198 0.63965 0.89844 s0.62988 0.54036 1.0693 0.76172 s0.96843 0.39877 1.5869 0.53224 s1.3542 0.2002 2.207 0.2002 c0.42969 0 0.80403 -0.013018 1.123 -0.039063 s0.61035 -0.061855 0.87402 -0.10743 s0.51106 -0.10092 0.74219 -0.16603 s0.47038 -0.13347 0.71777 -0.20508 l0 -1.6211 l-4.0625 0 l0 -2.9395 l7.6855 0 l0 6.8555 c-0.48177 0.16276 -1.0205 0.31088 -1.6162 0.44435 s-1.2109 0.2474 -1.8457 0.34181 s-1.2712 0.16765 -1.9092 0.21973 s-1.2402 0.078125 -1.8066 0.078125 c-0.87891 0 -1.722 -0.058594 -2.5293 -0.17578 s-1.5608 -0.29785 -2.2607 -0.54199 s-1.3379 -0.55501 -1.9141 -0.93262 s-1.0677 -0.82683 -1.4746 -1.3477 s-0.72266 -1.1182 -0.94727 -1.792 s-0.33691 -1.4307 -0.33691 -2.2705 c0 -0.83333 0.11719 -1.5886 0.35156 -2.2656 s0.56152 -1.2761 0.98145 -1.7969 s0.92448 -0.97005 1.5137 -1.3477 s1.237 -0.68848 1.9434 -0.93262 s1.4616 -0.4248 2.2656 -0.54199 s1.6325 -0.17578 2.4854 -0.17578 z M233.5136625 20 l0 -13.418 l3.623 0 l0 13.418 l-3.623 0 z M270.76328125 20 l-9.0527 -9.2188 l0 9.2188 l-3.623 0 l0 -13.418 l3.9355 0 l9.0625 9.2578 l0 -9.2578 l3.6035 0 l0 13.418 l-3.9258 0 z M295.640615625 20 l0 -13.418 l13.584 0 l0 2.8613 l-9.8633 0 l0 2.2168 l9.3555 0 l0 2.8613 l-9.3555 0 l0 2.6172 l10 0 l0 2.8613 l-13.721 0 z M334.550765625 17.6367 c0.91146 0 1.6943 -0.081367 2.3486 -0.24413 s1.1963 -0.389 1.626 -0.67872 s0.75195 -0.62826 0.9668 -1.0156 s0.33528 -0.80566 0.36133 -1.2549 c-0.33854 0.16276 -0.69499 0.31738 -1.0693 0.46387 s-0.77474 0.27669 -1.2012 0.39063 s-0.88542 0.20346 -1.377 0.26856 s-1.0237 0.097656 -1.5967 0.097656 c-0.86589 0 -1.6699 -0.08626 -2.4121 -0.25879 s-1.3867 -0.43945 -1.9336 -0.80078 s-0.97656 -0.8252 -1.2891 -1.3916 s-0.46875 -1.2435 -0.46875 -2.0313 c0 -0.87891 0.18229 -1.6292 0.54688 -2.251 s0.86588 -1.1328 1.5039 -1.5332 s1.3899 -0.69336 2.2559 -0.87891 s1.8034 -0.27832 2.8125 -0.27832 c1.1589 0 2.2185 0.14323 3.1787 0.42969 s1.7854 0.71614 2.4756 1.2891 s1.2239 1.2907 1.6016 2.1533 s0.56641 1.8733 0.56641 3.0322 c0 0.98955 -0.16927 1.9222 -0.50781 2.7979 s-0.86426 1.6406 -1.5771 2.2949 s-1.6211 1.1719 -2.7246 1.5527 s-2.4202 0.57129 -3.9502 0.57129 c-0.4362 0 -0.88542 -0.016279 -1.3477 -0.048828 s-0.91309 -0.076494 -1.3525 -0.13184 s-0.85774 -0.12045 -1.2549 -0.19532 s-0.74545 -0.15137 -1.0449 -0.22949 l0 -2.998 c0.21484 0.084639 0.47688 0.17904 0.78613 0.28321 s0.66732 0.2002 1.0742 0.28809 s0.85938 0.16113 1.3574 0.21973 s1.0466 0.087891 1.6455 0.087891 z M339.784765625 11.4844 c-0.071611 -0.27344 -0.21971 -0.55339 -0.44432 -0.83984 s-0.51758 -0.5485 -0.87891 -0.78612 s-0.78613 -0.43294 -1.2744 -0.58594 s-1.0286 -0.22949 -1.6211 -0.22949 c-0.48177 0 -0.93099 0.037432 -1.3477 0.1123 s-0.77963 0.19043 -1.0889 0.34668 s-0.55339 0.35319 -0.73242 0.59082 s-0.26855 0.5192 -0.26855 0.84472 c0 0.35156 0.071611 0.65104 0.21484 0.89844 s0.35156 0.44759 0.625 0.60059 s0.61035 0.2653 1.0107 0.33691 s0.85774 0.10742 1.3721 0.10742 c0.42317 0 0.84473 -0.039063 1.2646 -0.11719 s0.82194 -0.18066 1.2061 -0.30762 s0.74381 -0.27507 1.0791 -0.44434 s0.62988 -0.34505 0.88379 -0.52734 z M371.224628125 8.965 c-0.85938 0 -1.6048 0.081396 -2.2362 0.24416 s-1.1556 0.389 -1.5723 0.67872 s-0.7308 0.62826 -0.94239 1.0156 s-0.33041 0.80566 -0.35646 1.2549 c0.33854 -0.16276 0.69499 -0.31738 1.0693 -0.46387 s0.77637 -0.27669 1.2061 -0.39063 s0.8903 -0.20346 1.3818 -0.26856 s1.0205 -0.097656 1.5869 -0.097656 c0.86589 0 1.6699 0.084639 2.4121 0.25391 s1.3867 0.43619 1.9336 0.80077 s0.97656 0.83008 1.2891 1.3965 s0.46875 1.2435 0.46875 2.0313 c0 0.87239 -0.18229 1.6211 -0.54688 2.2461 s-0.86588 1.1377 -1.5039 1.5381 s-1.3899 0.69336 -2.2559 0.87891 s-1.8034 0.27832 -2.8125 0.27832 c-1.1653 0 -2.2266 -0.14323 -3.1836 -0.42969 s-1.7806 -0.71614 -2.4707 -1.2891 s-1.2239 -1.2923 -1.6016 -2.1582 s-0.56641 -1.875 -0.56641 -3.0273 c0 -0.98955 0.16765 -1.9222 0.50293 -2.7979 s0.85286 -1.6406 1.5527 -2.2949 s1.5886 -1.1719 2.666 -1.5527 s2.3552 -0.57129 3.833 -0.57129 c0.4362 0 0.88542 0.016279 1.3477 0.048828 s0.91471 0.076494 1.3574 0.13184 s0.861 0.11882 1.2549 0.19043 s0.74056 0.14648 1.04 0.22461 l0 3.0078 c-0.21484 -0.084639 -0.47688 -0.17904 -0.78613 -0.28321 s-0.66732 -0.2002 -1.0742 -0.28809 s-0.85938 -0.16113 -1.3574 -0.21973 s-1.0433 -0.087891 -1.6357 -0.087891 z M366.185628125 15.1172 c0.071611 0.27344 0.21972 0.55339 0.44433 0.83984 s0.51758 0.5485 0.87891 0.78612 s0.7845 0.43294 1.2695 0.58594 s1.0271 0.22949 1.626 0.22949 c0.47526 0 0.92285 -0.037432 1.3428 -0.1123 s0.7845 -0.19043 1.0938 -0.34668 s0.55339 -0.35319 0.73242 -0.59082 s0.26855 -0.5192 0.26855 -0.84472 c0 -0.35156 -0.071611 -0.65104 -0.21484 -0.89844 s-0.35156 -0.44759 -0.625 -0.60059 s-0.61035 -0.2653 -1.0107 -0.33691 s-0.85774 -0.10742 -1.3721 -0.10742 c-0.42317 0 -0.84473 0.039063 -1.2646 0.11719 s-0.82194 0.18066 -1.2061 0.30762 s-0.74381 0.27507 -1.0791 0.44434 s-0.62988 0.34505 -0.88379 0.52734 z"/></g>
			</g>
		</svg>
	